<svg width="45" height="41" viewBox="0 0 45 41" fill="none" xmlns="http://www.w3.org/2000/svg">
<path d="M24.2885 20.0776L29.8329 15.1633L11.9248 6.24203C10.7379 5.67365 9.62601 5.59388 8.65101 6.21544L24.2885 20.0776ZM30.7779 25.8312L36.5416 22.9577C37.6666 22.3993 38.2835 21.6083 38.2835 20.7308C38.2835 19.8549 37.6666 19.0622 36.5435 18.5038L31.3254 15.9062L25.451 21.1113L30.7779 25.8312ZM7.68726 7.42366C7.56726 7.75106 7.49976 8.11669 7.49976 8.51721V32.9559C7.49976 33.5891 7.65726 34.1342 7.94226 34.568L23.1241 21.1097L7.68726 7.42366ZM24.2885 22.1401L9.19101 35.5236C9.47976 35.6217 9.79101 35.6732 10.1191 35.6732C10.7041 35.6732 11.3135 35.5203 11.9341 35.2145L29.2873 26.5774L24.2885 22.1401Z" fill="white"/>
</svg>
